<svg xmlns="http://www.w3.org/2000/svg" xmlns:xlink="http://www.w3.org/1999/xlink" id="Layer_1" x="0px" y="0px" viewBox="0 0 685.4 347.9" style="enable-background:new 0 0 685.4 347.9;" xml:space="preserve"><style type="text/css">	.st0{fill:#0B4B7C;}	.st1{fill:#EB1F26;}	.st2{fill:url(#SVGID_1_);}</style><g>	<path class="st0" d="M561.3,69l25.1,0c0,0-17.9-21.8-48.1-23.7C538.3,45.3,555.5,59.5,561.3,69z"></path>	<path class="st1" d="M685.4,123.1c0-38.2-46.2-59.1-46.2-59.1s-37-61.8-155.7-63.2C364.9-0.6,3.1,0.3,3.1,0.3l0,0L48,23.1h440.5  c0,0,108.8,6.3,131.9,59.4c0,0,45.3,16.3,40.3,43.6c0,0-29-20.3-91.9-20.3l-0.1,0c0,0-23.1-1.5-53.8,4.5c-0.4,0.1-0.9,0.2-1.3,0.2  c-15.9,3.3-42.9,10.6-68.6,26.1c-0.3,0.2-0.7,0.4-1,0.6c-0.9,0.6-1.8,1.1-2.7,1.7c-5.3,3.4-15.6,11.3-15.6,11.3v0l-127.4,0.1  l44.9,22.8h91.2l0,0c20.2-15.5,40.3-25.8,58.8-32.7c24.6-8.7,53.8-14.2,86.7-11.9l0,0c0,0,0,0,0,0c12.6,0.9,25.7,3,39.3,6.5  c19.4,4.5,39.5,11.8,43.7,22.7c0,0,0,0,0,0c12.3-8.4,17.9-17.6,20.4-24.4c0.1-0.4,0.3-0.7,0.4-1.1c0.2-0.5,0.3-0.9,0.4-1.4  C685.5,126.1,685.4,123.1,685.4,123.1z"></path>	<linearGradient id="SVGID_1_" gradientUnits="userSpaceOnUse" x1="198.63" y1="116.6094" x2="467.6189" y2="116.6094">		<stop offset="0" style="stop-color:#DFDFDE"></stop>		<stop offset="1" style="stop-color:#A09E9E"></stop>	</linearGradient>	<path class="st2" d="M440.4,101.9H198.6l44.6,22.7l187.3,1.1c0,0,6.6,4.2,8.9,5.6c11.4-5,18.8-10.7,28.2-13.3L440.4,101.9z"></path>	<path class="st0" d="M148.7,76.5l283.6,0.8l-40.5-23.7c-100.2-0.3-251.1,0-288,0.1L148.7,76.5z"></path>	<g>		<path class="st0" d="M0,284.9C0,235.2,36.6,199,89.8,199c26.4,0,47.9,9.6,58.1,27l-29.2,23.3c-6.7-10.8-17.2-16.8-31.5-16.8   c-27.8,0-46.2,21.5-46.2,49.7c0,19.2,13.1,32.1,35,32.1c12.9,0,24.7-4.9,35-16.6l23.9,23.5c-16.2,19.4-37.2,26.6-62.8,26.6   C28,347.9,0,322.3,0,284.9z"></path>		<path class="st0" d="M166.3,284.9c0-49.7,36.8-85.9,89.4-85.9c44,0,71.2,26,71.2,63c0,49.7-36.8,85.9-89.4,85.9   C193.5,347.9,166.3,321.9,166.3,284.9z M285.9,264.5c0-19-12.3-31.9-33.7-31.9c-28,0-45,22.9-45,49.9c0,19,12.3,31.9,33.7,31.9   C268.9,314.4,285.9,291.5,285.9,264.5z"></path>		<path class="st0" d="M447.1,267.7l48.1,77.3H450L417,293.5l-18.6,16.8l-7,34.8h-39.9l28.6-143.2h39.9l-11.7,58.5l64.6-58.5h47.7   L447.1,267.7z"></path>		<path class="st0" d="M524.8,284.9c0-49.7,36.8-85.9,89.4-85.9c44,0,71.2,26,71.2,63c0,49.7-36.8,85.9-89.4,85.9   C552,347.9,524.8,321.9,524.8,284.9z M644.5,264.5c0-19-12.3-31.9-33.7-31.9c-28,0-45,22.9-45,49.9c0,19,12.3,31.9,33.7,31.9   C627.5,314.4,644.5,291.5,644.5,264.5z"></path>	</g></g></svg>